solid ascii
  facet normal 0.000000e+000 -1.000000e+000 0.000000e+000
    outer loop
      vertex   -5.500000e+001 4.400000e+001 -8.881784e-015
      vertex   -2.500000e+001 4.400000e+001 -8.881784e-015
      vertex   -5.500000e+001 4.400000e+001 2.000000e+000
    endloop
  endfacet
  facet normal 0.000000e+000 -1.000000e+000 0.000000e+000
    outer loop
      vertex   -5.500000e+001 4.400000e+001 2.000000e+000
      vertex   -2.500000e+001 4.400000e+001 -8.881784e-015
      vertex   -2.500000e+001 4.400000e+001 2.000000e+000
    endloop
  endfacet
  facet normal 1.000000e+000 0.000000e+000 -0.000000e+000
    outer loop
      vertex   -2.500000e+001 4.400000e+001 -8.881784e-015
      vertex   -2.500000e+001 4.550000e+001 -8.881784e-015
      vertex   -2.500000e+001 4.400000e+001 2.000000e+000
    endloop
  endfacet
  facet normal 1.000000e+000 -0.000000e+000 0.000000e+000
    outer loop
      vertex   -2.500000e+001 4.400000e+001 2.000000e+000
      vertex   -2.500000e+001 4.550000e+001 -8.881784e-015
      vertex   -2.500000e+001 4.550000e+001 2.000000e+000
    endloop
  endfacet
  facet normal -0.000000e+000 -0.000000e+000 -1.000000e+000
    outer loop
      vertex   -2.500000e+001 4.550000e+001 -8.881784e-015
      vertex   -2.500000e+001 4.400000e+001 -8.881784e-015
      vertex   -4.000000e+001 4.550000e+001 -8.881784e-015
    endloop
  endfacet
  facet normal -0.000000e+000 -0.000000e+000 -1.000000e+000
    outer loop
      vertex   -4.000000e+001 4.550000e+001 -8.881784e-015
      vertex   -2.500000e+001 4.400000e+001 -8.881784e-015
      vertex   -5.500000e+001 4.400000e+001 -8.881784e-015
    endloop
  endfacet
  facet normal -0.000000e+000 0.000000e+000 -1.000000e+000
    outer loop
      vertex   -4.000000e+001 4.750000e+001 -8.881784e-015
      vertex   -5.500000e+001 4.400000e+001 -8.881784e-015
      vertex   -4.000000e+001 6.250000e+001 -8.881784e-015
    endloop
  endfacet
  facet normal -0.000000e+000 0.000000e+000 -1.000000e+000
    outer loop
      vertex   -2.500000e+001 6.250000e+001 -8.881784e-015
      vertex   -4.000000e+001 4.750000e+001 -8.881784e-015
      vertex   -4.000000e+001 6.250000e+001 -8.881784e-015
    endloop
  endfacet
  facet normal -0.000000e+000 -0.000000e+000 -1.000000e+000
    outer loop
      vertex   -2.500000e+001 6.250000e+001 -8.881784e-015
      vertex   -2.500000e+001 4.750000e+001 -8.881784e-015
      vertex   -4.000000e+001 4.750000e+001 -8.881784e-015
    endloop
  endfacet
  facet normal -0.000000e+000 0.000000e+000 -1.000000e+000
    outer loop
      vertex   -4.000000e+001 6.250000e+001 -8.881784e-015
      vertex   -5.500000e+001 4.400000e+001 -8.881784e-015
      vertex   -4.000000e+001 6.450000e+001 -8.881784e-015
    endloop
  endfacet
  facet normal -0.000000e+000 0.000000e+000 -1.000000e+000
    outer loop
      vertex   -4.000000e+001 6.450000e+001 -8.881784e-015
      vertex   -5.500000e+001 4.400000e+001 -8.881784e-015
      vertex   -5.500000e+001 9.200000e+001 -8.881784e-015
    endloop
  endfacet
  facet normal 0.000000e+000 0.000000e+000 -1.000000e+000
    outer loop
      vertex   -4.000000e+001 7.950000e+001 -8.881784e-015
      vertex   -5.500000e+001 9.200000e+001 -8.881784e-015
      vertex   -4.000000e+001 8.150000e+001 -8.881784e-015
    endloop
  endfacet
  facet normal -0.000000e+000 -0.000000e+000 -1.000000e+000
    outer loop
      vertex   -4.000000e+001 7.950000e+001 -8.881784e-015
      vertex   -4.000000e+001 6.450000e+001 -8.881784e-015
      vertex   -5.500000e+001 9.200000e+001 -8.881784e-015
    endloop
  endfacet
  facet normal 0.000000e+000 -0.000000e+000 -1.000000e+000
    outer loop
      vertex   -4.000000e+001 7.950000e+001 -8.881784e-015
      vertex   -2.500000e+001 7.950000e+001 -8.881784e-015
      vertex   -4.000000e+001 6.450000e+001 -8.881784e-015
    endloop
  endfacet
  facet normal 0.000000e+000 0.000000e+000 -1.000000e+000
    outer loop
      vertex   -4.000000e+001 6.450000e+001 -8.881784e-015
      vertex   -2.500000e+001 7.950000e+001 -8.881784e-015
      vertex   -2.500000e+001 6.450000e+001 -8.881784e-015
    endloop
  endfacet
  facet normal 0.000000e+000 -0.000000e+000 -1.000000e+000
    outer loop
      vertex   -5.500000e+001 1.400000e+002 -8.881784e-015
      vertex   -4.000000e+001 1.155000e+002 -8.881784e-015
      vertex   -5.500000e+001 9.200000e+001 -8.881784e-015
    endloop
  endfacet
  facet normal 0.000000e+000 0.000000e+000 -1.000000e+000
    outer loop
      vertex   -5.500000e+001 1.400000e+002 -8.881784e-015
      vertex   -4.000000e+001 1.305000e+002 -8.881784e-015
      vertex   -4.000000e+001 1.155000e+002 -8.881784e-015
    endloop
  endfacet
  facet normal 0.000000e+000 0.000000e+000 -1.000000e+000
    outer loop
      vertex   -5.500000e+001 1.400000e+002 -8.881784e-015
      vertex   -4.000000e+001 1.325000e+002 -8.881784e-015
      vertex   -4.000000e+001 1.305000e+002 -8.881784e-015
    endloop
  endfacet
  facet normal 0.000000e+000 0.000000e+000 -1.000000e+000
    outer loop
      vertex   -5.500000e+001 1.400000e+002 -8.881784e-015
      vertex   -4.000000e+001 1.475000e+002 -8.881784e-015
      vertex   -4.000000e+001 1.325000e+002 -8.881784e-015
    endloop
  endfacet
  facet normal 0.000000e+000 0.000000e+000 -1.000000e+000
    outer loop
      vertex   -5.500000e+001 1.400000e+002 -8.881784e-015
      vertex   -4.000000e+001 1.495000e+002 -8.881784e-015
      vertex   -4.000000e+001 1.475000e+002 -8.881784e-015
    endloop
  endfacet
  facet normal 0.000000e+000 0.000000e+000 -1.000000e+000
    outer loop
      vertex   -5.500000e+001 1.400000e+002 -8.881784e-015
      vertex   -4.000000e+001 1.645000e+002 -8.881784e-015
      vertex   -4.000000e+001 1.495000e+002 -8.881784e-015
    endloop
  endfacet
  facet normal 0.000000e+000 0.000000e+000 -1.000000e+000
    outer loop
      vertex   -5.500000e+001 1.400000e+002 -8.881784e-015
      vertex   -5.500000e+001 1.880000e+002 -8.881784e-015
      vertex   -4.000000e+001 1.645000e+002 -8.881784e-015
    endloop
  endfacet
  facet normal 0.000000e+000 0.000000e+000 -1.000000e+000
    outer loop
      vertex   -4.000000e+001 1.645000e+002 -8.881784e-015
      vertex   -5.500000e+001 1.880000e+002 -8.881784e-015
      vertex   -4.000000e+001 1.665000e+002 -8.881784e-015
    endloop
  endfacet
  facet normal 0.000000e+000 0.000000e+000 -1.000000e+000
    outer loop
      vertex   -4.000000e+001 1.665000e+002 -8.881784e-015
      vertex   -5.500000e+001 1.880000e+002 -8.881784e-015
      vertex   -4.000000e+001 1.815000e+002 -8.881784e-015
    endloop
  endfacet
  facet normal -0.000000e+000 0.000000e+000 -1.000000e+000
    outer loop
      vertex   -2.500000e+001 1.815000e+002 -8.881784e-015
      vertex   -4.000000e+001 1.665000e+002 -8.881784e-015
      vertex   -4.000000e+001 1.815000e+002 -8.881784e-015
    endloop
  endfacet
  facet normal -0.000000e+000 -0.000000e+000 -1.000000e+000
    outer loop
      vertex   -2.500000e+001 1.815000e+002 -8.881784e-015
      vertex   -2.500000e+001 1.665000e+002 -8.881784e-015
      vertex   -4.000000e+001 1.665000e+002 -8.881784e-015
    endloop
  endfacet
  facet normal 0.000000e+000 -0.000000e+000 -1.000000e+000
    outer loop
      vertex   -5.500000e+001 2.360000e+002 -8.881784e-015
      vertex   -4.000000e+001 2.155000e+002 -8.881784e-015
      vertex   -5.500000e+001 1.880000e+002 -8.881784e-015
    endloop
  endfacet
  facet normal 0.000000e+000 0.000000e+000 -1.000000e+000
    outer loop
      vertex   -5.500000e+001 2.360000e+002 -8.881784e-015
      vertex   -4.000000e+001 2.175000e+002 -8.881784e-015
      vertex   -4.000000e+001 2.155000e+002 -8.881784e-015
    endloop
  endfacet
  facet normal 0.000000e+000 0.000000e+000 -1.000000e+000
    outer loop
      vertex   -5.500000e+001 2.360000e+002 -8.881784e-015
      vertex   -4.000000e+001 2.325000e+002 -8.881784e-015
      vertex   -4.000000e+001 2.175000e+002 -8.881784e-015
    endloop
  endfacet
  facet normal 0.000000e+000 0.000000e+000 -1.000000e+000
    outer loop
      vertex   -5.500000e+001 2.360000e+002 -8.881784e-015
      vertex   -4.000000e+001 2.345000e+002 -8.881784e-015
      vertex   -4.000000e+001 2.325000e+002 -8.881784e-015
    endloop
  endfacet
  facet normal 0.000000e+000 -0.000000e+000 -1.000000e+000
    outer loop
      vertex   -5.500000e+001 2.360000e+002 -8.881784e-015
      vertex   -2.500000e+001 2.360000e+002 -8.881784e-015
      vertex   -4.000000e+001 2.345000e+002 -8.881784e-015
    endloop
  endfacet
  facet normal 0.000000e+000 0.000000e+000 -1.000000e+000
    outer loop
      vertex   -4.000000e+001 2.345000e+002 -8.881784e-015
      vertex   -2.500000e+001 2.360000e+002 -8.881784e-015
      vertex   -2.500000e+001 2.345000e+002 -8.881784e-015
    endloop
  endfacet
  facet normal 0.000000e+000 -0.000000e+000 -1.000000e+000
    outer loop
      vertex   -4.000000e+001 2.325000e+002 -8.881784e-015
      vertex   -2.500000e+001 2.325000e+002 -8.881784e-015
      vertex   -4.000000e+001 2.175000e+002 -8.881784e-015
    endloop
  endfacet
  facet normal 0.000000e+000 0.000000e+000 -1.000000e+000
    outer loop
      vertex   -4.000000e+001 2.175000e+002 -8.881784e-015
      vertex   -2.500000e+001 2.325000e+002 -8.881784e-015
      vertex   -2.500000e+001 2.175000e+002 -8.881784e-015
    endloop
  endfacet
  facet normal 0.000000e+000 0.000000e+000 -1.000000e+000
    outer loop
      vertex   -5.500000e+001 1.880000e+002 -8.881784e-015
      vertex   -4.000000e+001 2.155000e+002 -8.881784e-015
      vertex   -4.000000e+001 2.005000e+002 -8.881784e-015
    endloop
  endfacet
  facet normal -0.000000e+000 0.000000e+000 -1.000000e+000
    outer loop
      vertex   -4.000000e+001 1.985000e+002 -8.881784e-015
      vertex   -5.500000e+001 1.880000e+002 -8.881784e-015
      vertex   -4.000000e+001 2.005000e+002 -8.881784e-015
    endloop
  endfacet
  facet normal -0.000000e+000 -0.000000e+000 -1.000000e+000
    outer loop
      vertex   -4.000000e+001 1.985000e+002 -8.881784e-015
      vertex   -4.000000e+001 1.835000e+002 -8.881784e-015
      vertex   -5.500000e+001 1.880000e+002 -8.881784e-015
    endloop
  endfacet
  facet normal -0.000000e+000 -0.000000e+000 -1.000000e+000
    outer loop
      vertex   -4.000000e+001 1.985000e+002 -8.881784e-015
      vertex   -2.500000e+001 1.835000e+002 -8.881784e-015
      vertex   -4.000000e+001 1.835000e+002 -8.881784e-015
    endloop
  endfacet
  facet normal 0.000000e+000 0.000000e+000 -1.000000e+000
    outer loop
      vertex   -4.000000e+001 1.985000e+002 -8.881784e-015
      vertex   -2.500000e+001 1.985000e+002 -8.881784e-015
      vertex   -2.500000e+001 1.835000e+002 -8.881784e-015
    endloop
  endfacet
  facet normal 0.000000e+000 0.000000e+000 -1.000000e+000
    outer loop
      vertex   -2.500000e+001 2.005000e+002 -8.881784e-015
      vertex   -4.000000e+001 2.005000e+002 -8.881784e-015
      vertex   -2.500000e+001 2.155000e+002 -8.881784e-015
    endloop
  endfacet
  facet normal -0.000000e+000 0.000000e+000 -1.000000e+000
    outer loop
      vertex   -2.500000e+001 2.155000e+002 -8.881784e-015
      vertex   -4.000000e+001 2.005000e+002 -8.881784e-015
      vertex   -4.000000e+001 2.155000e+002 -8.881784e-015
    endloop
  endfacet
  facet normal -0.000000e+000 -0.000000e+000 -1.000000e+000
    outer loop
      vertex   -4.000000e+001 1.835000e+002 -8.881784e-015
      vertex   -4.000000e+001 1.815000e+002 -8.881784e-015
      vertex   -5.500000e+001 1.880000e+002 -8.881784e-015
    endloop
  endfacet
  facet normal 0.000000e+000 -0.000000e+000 -1.000000e+000
    outer loop
      vertex   -4.000000e+001 1.645000e+002 -8.881784e-015
      vertex   -2.500000e+001 1.645000e+002 -8.881784e-015
      vertex   -4.000000e+001 1.495000e+002 -8.881784e-015
    endloop
  endfacet
  facet normal 0.000000e+000 0.000000e+000 -1.000000e+000
    outer loop
      vertex   -4.000000e+001 1.495000e+002 -8.881784e-015
      vertex   -2.500000e+001 1.645000e+002 -8.881784e-015
      vertex   -2.500000e+001 1.495000e+002 -8.881784e-015
    endloop
  endfacet
  facet normal -0.000000e+000 -0.000000e+000 -1.000000e+000
    outer loop
      vertex   -2.500000e+001 1.475000e+002 -8.881784e-015
      vertex   -2.500000e+001 1.325000e+002 -8.881784e-015
      vertex   -4.000000e+001 1.475000e+002 -8.881784e-015
    endloop
  endfacet
  facet normal -0.000000e+000 -0.000000e+000 -1.000000e+000
    outer loop
      vertex   -4.000000e+001 1.475000e+002 -8.881784e-015
      vertex   -2.500000e+001 1.325000e+002 -8.881784e-015
      vertex   -4.000000e+001 1.325000e+002 -8.881784e-015
    endloop
  endfacet
  facet normal 0.000000e+000 -0.000000e+000 -1.000000e+000
    outer loop
      vertex   -4.000000e+001 1.305000e+002 -8.881784e-015
      vertex   -2.500000e+001 1.305000e+002 -8.881784e-015
      vertex   -4.000000e+001 1.155000e+002 -8.881784e-015
    endloop
  endfacet
  facet normal 0.000000e+000 0.000000e+000 -1.000000e+000
    outer loop
      vertex   -4.000000e+001 1.155000e+002 -8.881784e-015
      vertex   -2.500000e+001 1.305000e+002 -8.881784e-015
      vertex   -2.500000e+001 1.155000e+002 -8.881784e-015
    endloop
  endfacet
  facet normal 0.000000e+000 -0.000000e+000 -1.000000e+000
    outer loop
      vertex   -4.000000e+001 1.155000e+002 -8.881784e-015
      vertex   -4.000000e+001 1.135000e+002 -8.881784e-015
      vertex   -5.500000e+001 9.200000e+001 -8.881784e-015
    endloop
  endfacet
  facet normal 0.000000e+000 0.000000e+000 -1.000000e+000
    outer loop
      vertex   -5.500000e+001 9.200000e+001 -8.881784e-015
      vertex   -4.000000e+001 1.135000e+002 -8.881784e-015
      vertex   -4.000000e+001 9.850000e+001 -8.881784e-015
    endloop
  endfacet
  facet normal -0.000000e+000 0.000000e+000 -1.000000e+000
    outer loop
      vertex   -4.000000e+001 9.650000e+001 -8.881784e-015
      vertex   -5.500000e+001 9.200000e+001 -8.881784e-015
      vertex   -4.000000e+001 9.850000e+001 -8.881784e-015
    endloop
  endfacet
  facet normal -0.000000e+000 -0.000000e+000 -1.000000e+000
    outer loop
      vertex   -4.000000e+001 9.650000e+001 -8.881784e-015
      vertex   -4.000000e+001 8.150000e+001 -8.881784e-015
      vertex   -5.500000e+001 9.200000e+001 -8.881784e-015
    endloop
  endfacet
  facet normal -0.000000e+000 -0.000000e+000 -1.000000e+000
    outer loop
      vertex   -4.000000e+001 9.650000e+001 -8.881784e-015
      vertex   -2.500000e+001 8.150000e+001 -8.881784e-015
      vertex   -4.000000e+001 8.150000e+001 -8.881784e-015
    endloop
  endfacet
  facet normal 0.000000e+000 0.000000e+000 -1.000000e+000
    outer loop
      vertex   -4.000000e+001 9.650000e+001 -8.881784e-015
      vertex   -2.500000e+001 9.650000e+001 -8.881784e-015
      vertex   -2.500000e+001 8.150000e+001 -8.881784e-015
    endloop
  endfacet
  facet normal 0.000000e+000 -0.000000e+000 -1.000000e+000
    outer loop
      vertex   -4.000000e+001 1.135000e+002 -8.881784e-015
      vertex   -2.500000e+001 1.135000e+002 -8.881784e-015
      vertex   -4.000000e+001 9.850000e+001 -8.881784e-015
    endloop
  endfacet
  facet normal 0.000000e+000 0.000000e+000 -1.000000e+000
    outer loop
      vertex   -4.000000e+001 9.850000e+001 -8.881784e-015
      vertex   -2.500000e+001 1.135000e+002 -8.881784e-015
      vertex   -2.500000e+001 9.850000e+001 -8.881784e-015
    endloop
  endfacet
  facet normal 0.000000e+000 -0.000000e+000 -1.000000e+000
    outer loop
      vertex   -4.000000e+001 4.750000e+001 -8.881784e-015
      vertex   -4.000000e+001 4.550000e+001 -8.881784e-015
      vertex   -5.500000e+001 4.400000e+001 -8.881784e-015
    endloop
  endfacet
  facet normal -0.000000e+000 1.000000e+000 0.000000e+000
    outer loop
      vertex   -5.500000e+001 2.360000e+002 2.000000e+000
      vertex   -2.500000e+001 2.360000e+002 2.000000e+000
      vertex   -5.500000e+001 2.360000e+002 -8.881784e-015
    endloop
  endfacet
  facet normal -0.000000e+000 1.000000e+000 0.000000e+000
    outer loop
      vertex   -5.500000e+001 2.360000e+002 -8.881784e-015
      vertex   -2.500000e+001 2.360000e+002 2.000000e+000
      vertex   -2.500000e+001 2.360000e+002 -8.881784e-015
    endloop
  endfacet
  facet normal 0.000000e+000 -1.192093e-007 1.000000e+000
    outer loop
      vertex   -2.500000e+001 4.400000e+001 2.000000e+000
      vertex   -4.000000e+001 4.550000e+001 2.000000e+000
      vertex   -5.500000e+001 4.400000e+001 2.000000e+000
    endloop
  endfacet
  facet normal 0.000000e+000 -1.192093e-007 1.000000e+000
    outer loop
      vertex   -2.500000e+001 4.400000e+001 2.000000e+000
      vertex   -2.500000e+001 4.550000e+001 2.000000e+000
      vertex   -4.000000e+001 4.550000e+001 2.000000e+000
    endloop
  endfacet
  facet normal -1.192093e-008 0.000000e+000 1.000000e+000
    outer loop
      vertex   -4.000000e+001 4.550000e+001 2.000000e+000
      vertex   -4.000000e+001 4.750000e+001 2.000000e+000
      vertex   -5.500000e+001 4.400000e+001 2.000000e+000
    endloop
  endfacet
  facet normal -1.192093e-008 0.000000e+000 1.000000e+000
    outer loop
      vertex   -5.500000e+001 4.400000e+001 2.000000e+000
      vertex   -4.000000e+001 4.750000e+001 2.000000e+000
      vertex   -4.000000e+001 6.250000e+001 2.000000e+000
    endloop
  endfacet
  facet normal -1.192093e-008 0.000000e+000 1.000000e+000
    outer loop
      vertex   -4.000000e+001 6.450000e+001 2.000000e+000
      vertex   -5.500000e+001 4.400000e+001 2.000000e+000
      vertex   -4.000000e+001 6.250000e+001 2.000000e+000
    endloop
  endfacet
  facet normal -1.192093e-008 0.000000e+000 1.000000e+000
    outer loop
      vertex   -4.000000e+001 6.450000e+001 2.000000e+000
      vertex   -5.500000e+001 9.200000e+001 2.000000e+000
      vertex   -5.500000e+001 4.400000e+001 2.000000e+000
    endloop
  endfacet
  facet normal -1.192093e-008 0.000000e+000 1.000000e+000
    outer loop
      vertex   -4.000000e+001 6.450000e+001 2.000000e+000
      vertex   -4.000000e+001 7.950000e+001 2.000000e+000
      vertex   -5.500000e+001 9.200000e+001 2.000000e+000
    endloop
  endfacet
  facet normal 0.000000e+000 -0.000000e+000 1.000000e+000
    outer loop
      vertex   -4.000000e+001 6.450000e+001 2.000000e+000
      vertex   -2.500000e+001 6.450000e+001 2.000000e+000
      vertex   -4.000000e+001 7.950000e+001 2.000000e+000
    endloop
  endfacet
  facet normal -0.000000e+000 0.000000e+000 1.000000e+000
    outer loop
      vertex   -4.000000e+001 7.950000e+001 2.000000e+000
      vertex   -2.500000e+001 6.450000e+001 2.000000e+000
      vertex   -2.500000e+001 7.950000e+001 2.000000e+000
    endloop
  endfacet
  facet normal 0.000000e+000 -0.000000e+000 1.000000e+000
    outer loop
      vertex   -4.000000e+001 4.750000e+001 2.000000e+000
      vertex   -2.500000e+001 4.750000e+001 2.000000e+000
      vertex   -4.000000e+001 6.250000e+001 2.000000e+000
    endloop
  endfacet
  facet normal -0.000000e+000 0.000000e+000 1.000000e+000
    outer loop
      vertex   -4.000000e+001 6.250000e+001 2.000000e+000
      vertex   -2.500000e+001 4.750000e+001 2.000000e+000
      vertex   -2.500000e+001 6.250000e+001 2.000000e+000
    endloop
  endfacet
  facet normal -1.192093e-008 0.000000e+000 1.000000e+000
    outer loop
      vertex   -4.000000e+001 7.950000e+001 2.000000e+000
      vertex   -4.000000e+001 8.150000e+001 2.000000e+000
      vertex   -5.500000e+001 9.200000e+001 2.000000e+000
    endloop
  endfacet
  facet normal -1.192093e-008 0.000000e+000 1.000000e+000
    outer loop
      vertex   -5.500000e+001 9.200000e+001 2.000000e+000
      vertex   -4.000000e+001 8.150000e+001 2.000000e+000
      vertex   -4.000000e+001 9.650000e+001 2.000000e+000
    endloop
  endfacet
  facet normal -1.192093e-008 0.000000e+000 1.000000e+000
    outer loop
      vertex   -4.000000e+001 9.850000e+001 2.000000e+000
      vertex   -5.500000e+001 9.200000e+001 2.000000e+000
      vertex   -4.000000e+001 9.650000e+001 2.000000e+000
    endloop
  endfacet
  facet normal -1.192093e-008 0.000000e+000 1.000000e+000
    outer loop
      vertex   -4.000000e+001 9.850000e+001 2.000000e+000
      vertex   -4.000000e+001 1.135000e+002 2.000000e+000
      vertex   -5.500000e+001 9.200000e+001 2.000000e+000
    endloop
  endfacet
  facet normal 0.000000e+000 -0.000000e+000 1.000000e+000
    outer loop
      vertex   -4.000000e+001 9.850000e+001 2.000000e+000
      vertex   -2.500000e+001 9.850000e+001 2.000000e+000
      vertex   -4.000000e+001 1.135000e+002 2.000000e+000
    endloop
  endfacet
  facet normal -0.000000e+000 0.000000e+000 1.000000e+000
    outer loop
      vertex   -4.000000e+001 1.135000e+002 2.000000e+000
      vertex   -2.500000e+001 9.850000e+001 2.000000e+000
      vertex   -2.500000e+001 1.135000e+002 2.000000e+000
    endloop
  endfacet
  facet normal 0.000000e+000 -0.000000e+000 1.000000e+000
    outer loop
      vertex   -2.500000e+001 8.150000e+001 2.000000e+000
      vertex   -2.500000e+001 9.650000e+001 2.000000e+000
      vertex   -4.000000e+001 8.150000e+001 2.000000e+000
    endloop
  endfacet
  facet normal 0.000000e+000 -0.000000e+000 1.000000e+000
    outer loop
      vertex   -4.000000e+001 8.150000e+001 2.000000e+000
      vertex   -2.500000e+001 9.650000e+001 2.000000e+000
      vertex   -4.000000e+001 9.650000e+001 2.000000e+000
    endloop
  endfacet
  facet normal -1.192093e-008 0.000000e+000 1.000000e+000
    outer loop
      vertex   -4.000000e+001 1.135000e+002 2.000000e+000
      vertex   -4.000000e+001 1.155000e+002 2.000000e+000
      vertex   -5.500000e+001 9.200000e+001 2.000000e+000
    endloop
  endfacet
  facet normal -1.192093e-008 0.000000e+000 1.000000e+000
    outer loop
      vertex   -5.500000e+001 9.200000e+001 2.000000e+000
      vertex   -4.000000e+001 1.155000e+002 2.000000e+000
      vertex   -5.500000e+001 1.400000e+002 2.000000e+000
    endloop
  endfacet
  facet normal -1.192093e-008 0.000000e+000 1.000000e+000
    outer loop
      vertex   -5.500000e+001 1.400000e+002 2.000000e+000
      vertex   -4.000000e+001 1.155000e+002 2.000000e+000
      vertex   -4.000000e+001 1.305000e+002 2.000000e+000
    endloop
  endfacet
  facet normal -1.192093e-008 0.000000e+000 1.000000e+000
    outer loop
      vertex   -4.000000e+001 1.325000e+002 2.000000e+000
      vertex   -5.500000e+001 1.400000e+002 2.000000e+000
      vertex   -4.000000e+001 1.305000e+002 2.000000e+000
    endloop
  endfacet
  facet normal -1.192093e-008 0.000000e+000 1.000000e+000
    outer loop
      vertex   -4.000000e+001 1.325000e+002 2.000000e+000
      vertex   -4.000000e+001 1.475000e+002 2.000000e+000
      vertex   -5.500000e+001 1.400000e+002 2.000000e+000
    endloop
  endfacet
  facet normal 0.000000e+000 -0.000000e+000 1.000000e+000
    outer loop
      vertex   -4.000000e+001 1.325000e+002 2.000000e+000
      vertex   -2.500000e+001 1.475000e+002 2.000000e+000
      vertex   -4.000000e+001 1.475000e+002 2.000000e+000
    endloop
  endfacet
  facet normal 0.000000e+000 0.000000e+000 1.000000e+000
    outer loop
      vertex   -4.000000e+001 1.325000e+002 2.000000e+000
      vertex   -2.500000e+001 1.325000e+002 2.000000e+000
      vertex   -2.500000e+001 1.475000e+002 2.000000e+000
    endloop
  endfacet
  facet normal 0.000000e+000 -0.000000e+000 1.000000e+000
    outer loop
      vertex   -4.000000e+001 1.155000e+002 2.000000e+000
      vertex   -2.500000e+001 1.155000e+002 2.000000e+000
      vertex   -4.000000e+001 1.305000e+002 2.000000e+000
    endloop
  endfacet
  facet normal -0.000000e+000 0.000000e+000 1.000000e+000
    outer loop
      vertex   -4.000000e+001 1.305000e+002 2.000000e+000
      vertex   -2.500000e+001 1.155000e+002 2.000000e+000
      vertex   -2.500000e+001 1.305000e+002 2.000000e+000
    endloop
  endfacet
  facet normal -1.192093e-008 0.000000e+000 1.000000e+000
    outer loop
      vertex   -4.000000e+001 1.475000e+002 2.000000e+000
      vertex   -4.000000e+001 1.495000e+002 2.000000e+000
      vertex   -5.500000e+001 1.400000e+002 2.000000e+000
    endloop
  endfacet
  facet normal -1.192093e-008 0.000000e+000 1.000000e+000
    outer loop
      vertex   -5.500000e+001 1.400000e+002 2.000000e+000
      vertex   -4.000000e+001 1.495000e+002 2.000000e+000
      vertex   -4.000000e+001 1.645000e+002 2.000000e+000
    endloop
  endfacet
  facet normal -1.192093e-008 0.000000e+000 1.000000e+000
    outer loop
      vertex   -5.500000e+001 1.880000e+002 2.000000e+000
      vertex   -4.000000e+001 1.645000e+002 2.000000e+000
      vertex   -4.000000e+001 1.665000e+002 2.000000e+000
    endloop
  endfacet
  facet normal -0.000000e+000 0.000000e+000 1.000000e+000
    outer loop
      vertex   -4.000000e+001 1.815000e+002 2.000000e+000
      vertex   -4.000000e+001 1.665000e+002 2.000000e+000
      vertex   -2.500000e+001 1.665000e+002 2.000000e+000
    endloop
  endfacet
  facet normal 0.000000e+000 0.000000e+000 1.000000e+000
    outer loop
      vertex   -2.500000e+001 1.815000e+002 2.000000e+000
      vertex   -4.000000e+001 1.815000e+002 2.000000e+000
      vertex   -2.500000e+001 1.665000e+002 2.000000e+000
    endloop
  endfacet
  facet normal 0.000000e+000 -0.000000e+000 1.000000e+000
    outer loop
      vertex   -4.000000e+001 1.495000e+002 2.000000e+000
      vertex   -2.500000e+001 1.495000e+002 2.000000e+000
      vertex   -4.000000e+001 1.645000e+002 2.000000e+000
    endloop
  endfacet
  facet normal -0.000000e+000 0.000000e+000 1.000000e+000
    outer loop
      vertex   -4.000000e+001 1.645000e+002 2.000000e+000
      vertex   -2.500000e+001 1.495000e+002 2.000000e+000
      vertex   -2.500000e+001 1.645000e+002 2.000000e+000
    endloop
  endfacet
  facet normal -1.192093e-008 0.000000e+000 1.000000e+000
    outer loop
      vertex   -5.500000e+001 1.400000e+002 2.000000e+000
      vertex   -4.000000e+001 1.645000e+002 2.000000e+000
      vertex   -5.500000e+001 1.880000e+002 2.000000e+000
    endloop
  endfacet
  facet normal -1.192093e-008 0.000000e+000 1.000000e+000
    outer loop
      vertex   -5.500000e+001 1.880000e+002 2.000000e+000
      vertex   -4.000000e+001 1.665000e+002 2.000000e+000
      vertex   -4.000000e+001 1.815000e+002 2.000000e+000
    endloop
  endfacet
  facet normal -1.192093e-008 0.000000e+000 1.000000e+000
    outer loop
      vertex   -4.000000e+001 1.835000e+002 2.000000e+000
      vertex   -5.500000e+001 1.880000e+002 2.000000e+000
      vertex   -4.000000e+001 1.815000e+002 2.000000e+000
    endloop
  endfacet
  facet normal -1.192093e-008 0.000000e+000 1.000000e+000
    outer loop
      vertex   -4.000000e+001 1.835000e+002 2.000000e+000
      vertex   -4.000000e+001 1.985000e+002 2.000000e+000
      vertex   -5.500000e+001 1.880000e+002 2.000000e+000
    endloop
  endfacet
  facet normal 0.000000e+000 -0.000000e+000 1.000000e+000
    outer loop
      vertex   -4.000000e+001 1.835000e+002 2.000000e+000
      vertex   -2.500000e+001 1.985000e+002 2.000000e+000
      vertex   -4.000000e+001 1.985000e+002 2.000000e+000
    endloop
  endfacet
  facet normal 0.000000e+000 0.000000e+000 1.000000e+000
    outer loop
      vertex   -4.000000e+001 1.835000e+002 2.000000e+000
      vertex   -2.500000e+001 1.835000e+002 2.000000e+000
      vertex   -2.500000e+001 1.985000e+002 2.000000e+000
    endloop
  endfacet
  facet normal -1.192093e-008 0.000000e+000 1.000000e+000
    outer loop
      vertex   -4.000000e+001 1.985000e+002 2.000000e+000
      vertex   -4.000000e+001 2.005000e+002 2.000000e+000
      vertex   -5.500000e+001 1.880000e+002 2.000000e+000
    endloop
  endfacet
  facet normal -1.192093e-008 0.000000e+000 1.000000e+000
    outer loop
      vertex   -5.500000e+001 1.880000e+002 2.000000e+000
      vertex   -4.000000e+001 2.005000e+002 2.000000e+000
      vertex   -4.000000e+001 2.155000e+002 2.000000e+000
    endloop
  endfacet
  facet normal -1.192093e-008 0.000000e+000 1.000000e+000
    outer loop
      vertex   -5.500000e+001 2.360000e+002 2.000000e+000
      vertex   -4.000000e+001 2.155000e+002 2.000000e+000
      vertex   -4.000000e+001 2.175000e+002 2.000000e+000
    endloop
  endfacet
  facet normal -0.000000e+000 0.000000e+000 1.000000e+000
    outer loop
      vertex   -4.000000e+001 2.325000e+002 2.000000e+000
      vertex   -4.000000e+001 2.175000e+002 2.000000e+000
      vertex   -2.500000e+001 2.175000e+002 2.000000e+000
    endloop
  endfacet
  facet normal 0.000000e+000 0.000000e+000 1.000000e+000
    outer loop
      vertex   -2.500000e+001 2.325000e+002 2.000000e+000
      vertex   -4.000000e+001 2.325000e+002 2.000000e+000
      vertex   -2.500000e+001 2.175000e+002 2.000000e+000
    endloop
  endfacet
  facet normal 0.000000e+000 -0.000000e+000 1.000000e+000
    outer loop
      vertex   -4.000000e+001 2.005000e+002 2.000000e+000
      vertex   -2.500000e+001 2.005000e+002 2.000000e+000
      vertex   -4.000000e+001 2.155000e+002 2.000000e+000
    endloop
  endfacet
  facet normal -0.000000e+000 0.000000e+000 1.000000e+000
    outer loop
      vertex   -4.000000e+001 2.155000e+002 2.000000e+000
      vertex   -2.500000e+001 2.005000e+002 2.000000e+000
      vertex   -2.500000e+001 2.155000e+002 2.000000e+000
    endloop
  endfacet
  facet normal -1.192093e-008 0.000000e+000 1.000000e+000
    outer loop
      vertex   -5.500000e+001 1.880000e+002 2.000000e+000
      vertex   -4.000000e+001 2.155000e+002 2.000000e+000
      vertex   -5.500000e+001 2.360000e+002 2.000000e+000
    endloop
  endfacet
  facet normal -1.192093e-008 0.000000e+000 1.000000e+000
    outer loop
      vertex   -5.500000e+001 2.360000e+002 2.000000e+000
      vertex   -4.000000e+001 2.175000e+002 2.000000e+000
      vertex   -4.000000e+001 2.325000e+002 2.000000e+000
    endloop
  endfacet
  facet normal -1.192093e-008 0.000000e+000 1.000000e+000
    outer loop
      vertex   -4.000000e+001 2.345000e+002 2.000000e+000
      vertex   -5.500000e+001 2.360000e+002 2.000000e+000
      vertex   -4.000000e+001 2.325000e+002 2.000000e+000
    endloop
  endfacet
  facet normal 0.000000e+000 1.192093e-007 1.000000e+000
    outer loop
      vertex   -4.000000e+001 2.345000e+002 2.000000e+000
      vertex   -2.500000e+001 2.360000e+002 2.000000e+000
      vertex   -5.500000e+001 2.360000e+002 2.000000e+000
    endloop
  endfacet
  facet normal -0.000000e+000 1.192093e-007 1.000000e+000
    outer loop
      vertex   -4.000000e+001 2.345000e+002 2.000000e+000
      vertex   -2.500000e+001 2.345000e+002 2.000000e+000
      vertex   -2.500000e+001 2.360000e+002 2.000000e+000
    endloop
  endfacet
  facet normal -1.000000e+000 0.000000e+000 -0.000000e+000
    outer loop
      vertex   -5.500000e+001 4.400000e+001 2.000000e+000
      vertex   -5.500000e+001 9.200000e+001 2.000000e+000
      vertex   -5.500000e+001 4.400000e+001 -8.881784e-015
    endloop
  endfacet
  facet normal -1.000000e+000 0.000000e+000 0.000000e+000
    outer loop
      vertex   -5.500000e+001 4.400000e+001 -8.881784e-015
      vertex   -5.500000e+001 9.200000e+001 2.000000e+000
      vertex   -5.500000e+001 9.200000e+001 -8.881784e-015
    endloop
  endfacet
  facet normal -1.000000e+000 0.000000e+000 0.000000e+000
    outer loop
      vertex   -5.500000e+001 9.200000e+001 -8.881784e-015
      vertex   -5.500000e+001 9.200000e+001 2.000000e+000
      vertex   -5.500000e+001 1.400000e+002 2.000000e+000
    endloop
  endfacet
  facet normal -1.000000e+000 0.000000e+000 0.000000e+000
    outer loop
      vertex   -5.500000e+001 1.400000e+002 -8.881784e-015
      vertex   -5.500000e+001 1.400000e+002 2.000000e+000
      vertex   -5.500000e+001 1.880000e+002 2.000000e+000
    endloop
  endfacet
  facet normal -1.000000e+000 0.000000e+000 0.000000e+000
    outer loop
      vertex   -5.500000e+001 1.880000e+002 -8.881784e-015
      vertex   -5.500000e+001 1.880000e+002 2.000000e+000
      vertex   -5.500000e+001 2.360000e+002 2.000000e+000
    endloop
  endfacet
  facet normal -1.000000e+000 0.000000e+000 0.000000e+000
    outer loop
      vertex   -5.500000e+001 2.360000e+002 -8.881784e-015
      vertex   -5.500000e+001 1.880000e+002 -8.881784e-015
      vertex   -5.500000e+001 2.360000e+002 2.000000e+000
    endloop
  endfacet
  facet normal -1.000000e+000 0.000000e+000 0.000000e+000
    outer loop
      vertex   -5.500000e+001 9.200000e+001 -8.881784e-015
      vertex   -5.500000e+001 1.400000e+002 2.000000e+000
      vertex   -5.500000e+001 1.400000e+002 -8.881784e-015
    endloop
  endfacet
  facet normal -1.000000e+000 0.000000e+000 0.000000e+000
    outer loop
      vertex   -5.500000e+001 1.400000e+002 -8.881784e-015
      vertex   -5.500000e+001 1.880000e+002 2.000000e+000
      vertex   -5.500000e+001 1.880000e+002 -8.881784e-015
    endloop
  endfacet
  facet normal 1.000000e+000 0.000000e+000 -0.000000e+000
    outer loop
      vertex   -4.000000e+001 7.950000e+001 -8.881784e-015
      vertex   -4.000000e+001 8.150000e+001 -8.881784e-015
      vertex   -4.000000e+001 7.950000e+001 2.000000e+000
    endloop
  endfacet
  facet normal 1.000000e+000 -0.000000e+000 0.000000e+000
    outer loop
      vertex   -4.000000e+001 7.950000e+001 2.000000e+000
      vertex   -4.000000e+001 8.150000e+001 -8.881784e-015
      vertex   -4.000000e+001 8.150000e+001 2.000000e+000
    endloop
  endfacet
  facet normal -9.473903e-016 1.000000e+000 7.105427e-015
    outer loop
      vertex   -2.500000e+001 7.950000e+001 -8.881784e-015
      vertex   -4.000000e+001 7.950000e+001 -8.881784e-015
      vertex   -2.500000e+001 7.950000e+001 2.000000e+000
    endloop
  endfacet
  facet normal 0.000000e+000 1.000000e+000 -0.000000e+000
    outer loop
      vertex   -2.500000e+001 7.950000e+001 2.000000e+000
      vertex   -4.000000e+001 7.950000e+001 -8.881784e-015
      vertex   -4.000000e+001 7.950000e+001 2.000000e+000
    endloop
  endfacet
  facet normal 0.000000e+000 -1.000000e+000 0.000000e+000
    outer loop
      vertex   -4.000000e+001 8.150000e+001 -8.881784e-015
      vertex   -2.500000e+001 8.150000e+001 -8.881784e-015
      vertex   -4.000000e+001 8.150000e+001 2.000000e+000
    endloop
  endfacet
  facet normal 0.000000e+000 -1.000000e+000 0.000000e+000
    outer loop
      vertex   -4.000000e+001 8.150000e+001 2.000000e+000
      vertex   -2.500000e+001 8.150000e+001 -8.881784e-015
      vertex   -2.500000e+001 8.150000e+001 2.000000e+000
    endloop
  endfacet
  facet normal 1.000000e+000 0.000000e+000 -0.000000e+000
    outer loop
      vertex   -4.000000e+001 1.475000e+002 -8.881784e-015
      vertex   -4.000000e+001 1.495000e+002 -8.881784e-015
      vertex   -4.000000e+001 1.475000e+002 2.000000e+000
    endloop
  endfacet
  facet normal 1.000000e+000 -0.000000e+000 0.000000e+000
    outer loop
      vertex   -4.000000e+001 1.475000e+002 2.000000e+000
      vertex   -4.000000e+001 1.495000e+002 -8.881784e-015
      vertex   -4.000000e+001 1.495000e+002 2.000000e+000
    endloop
  endfacet
  facet normal 0.000000e+000 1.000000e+000 -0.000000e+000
    outer loop
      vertex   -2.500000e+001 1.475000e+002 -8.881784e-015
      vertex   -4.000000e+001 1.475000e+002 -8.881784e-015
      vertex   -2.500000e+001 1.475000e+002 2.000000e+000
    endloop
  endfacet
  facet normal 0.000000e+000 1.000000e+000 -0.000000e+000
    outer loop
      vertex   -2.500000e+001 1.475000e+002 2.000000e+000
      vertex   -4.000000e+001 1.475000e+002 -8.881784e-015
      vertex   -4.000000e+001 1.475000e+002 2.000000e+000
    endloop
  endfacet
  facet normal 0.000000e+000 -1.000000e+000 0.000000e+000
    outer loop
      vertex   -4.000000e+001 1.495000e+002 -8.881784e-015
      vertex   -2.500000e+001 1.495000e+002 -8.881784e-015
      vertex   -4.000000e+001 1.495000e+002 2.000000e+000
    endloop
  endfacet
  facet normal 0.000000e+000 -1.000000e+000 0.000000e+000
    outer loop
      vertex   -4.000000e+001 1.495000e+002 2.000000e+000
      vertex   -2.500000e+001 1.495000e+002 -8.881784e-015
      vertex   -2.500000e+001 1.495000e+002 2.000000e+000
    endloop
  endfacet
  facet normal 1.000000e+000 0.000000e+000 -0.000000e+000
    outer loop
      vertex   -4.000000e+001 1.985000e+002 -8.881784e-015
      vertex   -4.000000e+001 2.005000e+002 -8.881784e-015
      vertex   -4.000000e+001 1.985000e+002 2.000000e+000
    endloop
  endfacet
  facet normal 1.000000e+000 -0.000000e+000 0.000000e+000
    outer loop
      vertex   -4.000000e+001 1.985000e+002 2.000000e+000
      vertex   -4.000000e+001 2.005000e+002 -8.881784e-015
      vertex   -4.000000e+001 2.005000e+002 2.000000e+000
    endloop
  endfacet
  facet normal 0.000000e+000 1.000000e+000 -0.000000e+000
    outer loop
      vertex   -2.500000e+001 1.985000e+002 -8.881784e-015
      vertex   -4.000000e+001 1.985000e+002 -8.881784e-015
      vertex   -2.500000e+001 1.985000e+002 2.000000e+000
    endloop
  endfacet
  facet normal 0.000000e+000 1.000000e+000 -0.000000e+000
    outer loop
      vertex   -2.500000e+001 1.985000e+002 2.000000e+000
      vertex   -4.000000e+001 1.985000e+002 -8.881784e-015
      vertex   -4.000000e+001 1.985000e+002 2.000000e+000
    endloop
  endfacet
  facet normal 0.000000e+000 -1.000000e+000 0.000000e+000
    outer loop
      vertex   -4.000000e+001 2.005000e+002 -8.881784e-015
      vertex   -2.500000e+001 2.005000e+002 -8.881784e-015
      vertex   -4.000000e+001 2.005000e+002 2.000000e+000
    endloop
  endfacet
  facet normal 0.000000e+000 -1.000000e+000 0.000000e+000
    outer loop
      vertex   -4.000000e+001 2.005000e+002 2.000000e+000
      vertex   -2.500000e+001 2.005000e+002 -8.881784e-015
      vertex   -2.500000e+001 2.005000e+002 2.000000e+000
    endloop
  endfacet
  facet normal 1.000000e+000 0.000000e+000 -0.000000e+000
    outer loop
      vertex   -4.000000e+001 2.155000e+002 -8.881784e-015
      vertex   -4.000000e+001 2.175000e+002 -8.881784e-015
      vertex   -4.000000e+001 2.155000e+002 2.000000e+000
    endloop
  endfacet
  facet normal 1.000000e+000 -0.000000e+000 0.000000e+000
    outer loop
      vertex   -4.000000e+001 2.155000e+002 2.000000e+000
      vertex   -4.000000e+001 2.175000e+002 -8.881784e-015
      vertex   -4.000000e+001 2.175000e+002 2.000000e+000
    endloop
  endfacet
  facet normal 0.000000e+000 1.000000e+000 -0.000000e+000
    outer loop
      vertex   -2.500000e+001 2.155000e+002 -8.881784e-015
      vertex   -4.000000e+001 2.155000e+002 -8.881784e-015
      vertex   -2.500000e+001 2.155000e+002 2.000000e+000
    endloop
  endfacet
  facet normal 0.000000e+000 1.000000e+000 -0.000000e+000
    outer loop
      vertex   -2.500000e+001 2.155000e+002 2.000000e+000
      vertex   -4.000000e+001 2.155000e+002 -8.881784e-015
      vertex   -4.000000e+001 2.155000e+002 2.000000e+000
    endloop
  endfacet
  facet normal 0.000000e+000 -1.000000e+000 0.000000e+000
    outer loop
      vertex   -4.000000e+001 2.175000e+002 -8.881784e-015
      vertex   -2.500000e+001 2.175000e+002 -8.881784e-015
      vertex   -4.000000e+001 2.175000e+002 2.000000e+000
    endloop
  endfacet
  facet normal 0.000000e+000 -1.000000e+000 0.000000e+000
    outer loop
      vertex   -4.000000e+001 2.175000e+002 2.000000e+000
      vertex   -2.500000e+001 2.175000e+002 -8.881784e-015
      vertex   -2.500000e+001 2.175000e+002 2.000000e+000
    endloop
  endfacet
  facet normal 1.000000e+000 0.000000e+000 -0.000000e+000
    outer loop
      vertex   -4.000000e+001 1.305000e+002 -8.881784e-015
      vertex   -4.000000e+001 1.325000e+002 -8.881784e-015
      vertex   -4.000000e+001 1.305000e+002 2.000000e+000
    endloop
  endfacet
  facet normal 1.000000e+000 -0.000000e+000 0.000000e+000
    outer loop
      vertex   -4.000000e+001 1.305000e+002 2.000000e+000
      vertex   -4.000000e+001 1.325000e+002 -8.881784e-015
      vertex   -4.000000e+001 1.325000e+002 2.000000e+000
    endloop
  endfacet
  facet normal 0.000000e+000 1.000000e+000 -0.000000e+000
    outer loop
      vertex   -2.500000e+001 1.305000e+002 -8.881784e-015
      vertex   -4.000000e+001 1.305000e+002 -8.881784e-015
      vertex   -2.500000e+001 1.305000e+002 2.000000e+000
    endloop
  endfacet
  facet normal 0.000000e+000 1.000000e+000 -0.000000e+000
    outer loop
      vertex   -2.500000e+001 1.305000e+002 2.000000e+000
      vertex   -4.000000e+001 1.305000e+002 -8.881784e-015
      vertex   -4.000000e+001 1.305000e+002 2.000000e+000
    endloop
  endfacet
  facet normal 0.000000e+000 -1.000000e+000 0.000000e+000
    outer loop
      vertex   -4.000000e+001 1.325000e+002 -8.881784e-015
      vertex   -2.500000e+001 1.325000e+002 -8.881784e-015
      vertex   -4.000000e+001 1.325000e+002 2.000000e+000
    endloop
  endfacet
  facet normal 0.000000e+000 -1.000000e+000 0.000000e+000
    outer loop
      vertex   -4.000000e+001 1.325000e+002 2.000000e+000
      vertex   -2.500000e+001 1.325000e+002 -8.881784e-015
      vertex   -2.500000e+001 1.325000e+002 2.000000e+000
    endloop
  endfacet
  facet normal 1.000000e+000 0.000000e+000 -0.000000e+000
    outer loop
      vertex   -4.000000e+001 6.250000e+001 -8.881784e-015
      vertex   -4.000000e+001 6.450000e+001 -8.881784e-015
      vertex   -4.000000e+001 6.250000e+001 2.000000e+000
    endloop
  endfacet
  facet normal 1.000000e+000 -0.000000e+000 0.000000e+000
    outer loop
      vertex   -4.000000e+001 6.250000e+001 2.000000e+000
      vertex   -4.000000e+001 6.450000e+001 -8.881784e-015
      vertex   -4.000000e+001 6.450000e+001 2.000000e+000
    endloop
  endfacet
  facet normal 0.000000e+000 1.000000e+000 -0.000000e+000
    outer loop
      vertex   -2.500000e+001 6.250000e+001 -8.881784e-015
      vertex   -4.000000e+001 6.250000e+001 -8.881784e-015
      vertex   -2.500000e+001 6.250000e+001 2.000000e+000
    endloop
  endfacet
  facet normal 0.000000e+000 1.000000e+000 -0.000000e+000
    outer loop
      vertex   -2.500000e+001 6.250000e+001 2.000000e+000
      vertex   -4.000000e+001 6.250000e+001 -8.881784e-015
      vertex   -4.000000e+001 6.250000e+001 2.000000e+000
    endloop
  endfacet
  facet normal 0.000000e+000 -1.000000e+000 0.000000e+000
    outer loop
      vertex   -4.000000e+001 6.450000e+001 -8.881784e-015
      vertex   -2.500000e+001 6.450000e+001 -8.881784e-015
      vertex   -4.000000e+001 6.450000e+001 2.000000e+000
    endloop
  endfacet
  facet normal 0.000000e+000 -1.000000e+000 0.000000e+000
    outer loop
      vertex   -4.000000e+001 6.450000e+001 2.000000e+000
      vertex   -2.500000e+001 6.450000e+001 -8.881784e-015
      vertex   -2.500000e+001 6.450000e+001 2.000000e+000
    endloop
  endfacet
  facet normal 1.000000e+000 0.000000e+000 -0.000000e+000
    outer loop
      vertex   -4.000000e+001 9.650000e+001 -8.881784e-015
      vertex   -4.000000e+001 9.850000e+001 -8.881784e-015
      vertex   -4.000000e+001 9.650000e+001 2.000000e+000
    endloop
  endfacet
  facet normal 1.000000e+000 -0.000000e+000 0.000000e+000
    outer loop
      vertex   -4.000000e+001 9.650000e+001 2.000000e+000
      vertex   -4.000000e+001 9.850000e+001 -8.881784e-015
      vertex   -4.000000e+001 9.850000e+001 2.000000e+000
    endloop
  endfacet
  facet normal 0.000000e+000 1.000000e+000 -0.000000e+000
    outer loop
      vertex   -2.500000e+001 9.650000e+001 -8.881784e-015
      vertex   -4.000000e+001 9.650000e+001 -8.881784e-015
      vertex   -2.500000e+001 9.650000e+001 2.000000e+000
    endloop
  endfacet
  facet normal 0.000000e+000 1.000000e+000 -0.000000e+000
    outer loop
      vertex   -2.500000e+001 9.650000e+001 2.000000e+000
      vertex   -4.000000e+001 9.650000e+001 -8.881784e-015
      vertex   -4.000000e+001 9.650000e+001 2.000000e+000
    endloop
  endfacet
  facet normal 0.000000e+000 -1.000000e+000 0.000000e+000
    outer loop
      vertex   -4.000000e+001 9.850000e+001 -8.881784e-015
      vertex   -2.500000e+001 9.850000e+001 -8.881784e-015
      vertex   -4.000000e+001 9.850000e+001 2.000000e+000
    endloop
  endfacet
  facet normal 0.000000e+000 -1.000000e+000 0.000000e+000
    outer loop
      vertex   -4.000000e+001 9.850000e+001 2.000000e+000
      vertex   -2.500000e+001 9.850000e+001 -8.881784e-015
      vertex   -2.500000e+001 9.850000e+001 2.000000e+000
    endloop
  endfacet
  facet normal 1.000000e+000 0.000000e+000 -0.000000e+000
    outer loop
      vertex   -4.000000e+001 1.645000e+002 -8.881784e-015
      vertex   -4.000000e+001 1.665000e+002 -8.881784e-015
      vertex   -4.000000e+001 1.645000e+002 2.000000e+000
    endloop
  endfacet
  facet normal 1.000000e+000 -0.000000e+000 0.000000e+000
    outer loop
      vertex   -4.000000e+001 1.645000e+002 2.000000e+000
      vertex   -4.000000e+001 1.665000e+002 -8.881784e-015
      vertex   -4.000000e+001 1.665000e+002 2.000000e+000
    endloop
  endfacet
  facet normal 0.000000e+000 1.000000e+000 -0.000000e+000
    outer loop
      vertex   -2.500000e+001 1.645000e+002 -8.881784e-015
      vertex   -4.000000e+001 1.645000e+002 -8.881784e-015
      vertex   -2.500000e+001 1.645000e+002 2.000000e+000
    endloop
  endfacet
  facet normal 0.000000e+000 1.000000e+000 -0.000000e+000
    outer loop
      vertex   -2.500000e+001 1.645000e+002 2.000000e+000
      vertex   -4.000000e+001 1.645000e+002 -8.881784e-015
      vertex   -4.000000e+001 1.645000e+002 2.000000e+000
    endloop
  endfacet
  facet normal 0.000000e+000 -1.000000e+000 0.000000e+000
    outer loop
      vertex   -4.000000e+001 1.665000e+002 -8.881784e-015
      vertex   -2.500000e+001 1.665000e+002 -8.881784e-015
      vertex   -4.000000e+001 1.665000e+002 2.000000e+000
    endloop
  endfacet
  facet normal 0.000000e+000 -1.000000e+000 0.000000e+000
    outer loop
      vertex   -4.000000e+001 1.665000e+002 2.000000e+000
      vertex   -2.500000e+001 1.665000e+002 -8.881784e-015
      vertex   -2.500000e+001 1.665000e+002 2.000000e+000
    endloop
  endfacet
  facet normal 1.000000e+000 0.000000e+000 -0.000000e+000
    outer loop
      vertex   -4.000000e+001 2.325000e+002 -8.881784e-015
      vertex   -4.000000e+001 2.345000e+002 -8.881784e-015
      vertex   -4.000000e+001 2.325000e+002 2.000000e+000
    endloop
  endfacet
  facet normal 1.000000e+000 -0.000000e+000 0.000000e+000
    outer loop
      vertex   -4.000000e+001 2.325000e+002 2.000000e+000
      vertex   -4.000000e+001 2.345000e+002 -8.881784e-015
      vertex   -4.000000e+001 2.345000e+002 2.000000e+000
    endloop
  endfacet
  facet normal 0.000000e+000 1.000000e+000 -0.000000e+000
    outer loop
      vertex   -2.500000e+001 2.325000e+002 -8.881784e-015
      vertex   -4.000000e+001 2.325000e+002 -8.881784e-015
      vertex   -2.500000e+001 2.325000e+002 2.000000e+000
    endloop
  endfacet
  facet normal 0.000000e+000 1.000000e+000 -0.000000e+000
    outer loop
      vertex   -2.500000e+001 2.325000e+002 2.000000e+000
      vertex   -4.000000e+001 2.325000e+002 -8.881784e-015
      vertex   -4.000000e+001 2.325000e+002 2.000000e+000
    endloop
  endfacet
  facet normal 0.000000e+000 -1.000000e+000 0.000000e+000
    outer loop
      vertex   -4.000000e+001 2.345000e+002 -8.881784e-015
      vertex   -2.500000e+001 2.345000e+002 -8.881784e-015
      vertex   -4.000000e+001 2.345000e+002 2.000000e+000
    endloop
  endfacet
  facet normal 0.000000e+000 -1.000000e+000 0.000000e+000
    outer loop
      vertex   -4.000000e+001 2.345000e+002 2.000000e+000
      vertex   -2.500000e+001 2.345000e+002 -8.881784e-015
      vertex   -2.500000e+001 2.345000e+002 2.000000e+000
    endloop
  endfacet
  facet normal 1.000000e+000 0.000000e+000 -0.000000e+000
    outer loop
      vertex   -4.000000e+001 1.815000e+002 -8.881784e-015
      vertex   -4.000000e+001 1.835000e+002 -8.881784e-015
      vertex   -4.000000e+001 1.815000e+002 2.000000e+000
    endloop
  endfacet
  facet normal 1.000000e+000 -0.000000e+000 0.000000e+000
    outer loop
      vertex   -4.000000e+001 1.815000e+002 2.000000e+000
      vertex   -4.000000e+001 1.835000e+002 -8.881784e-015
      vertex   -4.000000e+001 1.835000e+002 2.000000e+000
    endloop
  endfacet
  facet normal 0.000000e+000 1.000000e+000 -0.000000e+000
    outer loop
      vertex   -2.500000e+001 1.815000e+002 -8.881784e-015
      vertex   -4.000000e+001 1.815000e+002 -8.881784e-015
      vertex   -2.500000e+001 1.815000e+002 2.000000e+000
    endloop
  endfacet
  facet normal 0.000000e+000 1.000000e+000 -0.000000e+000
    outer loop
      vertex   -2.500000e+001 1.815000e+002 2.000000e+000
      vertex   -4.000000e+001 1.815000e+002 -8.881784e-015
      vertex   -4.000000e+001 1.815000e+002 2.000000e+000
    endloop
  endfacet
  facet normal 0.000000e+000 -1.000000e+000 0.000000e+000
    outer loop
      vertex   -4.000000e+001 1.835000e+002 -8.881784e-015
      vertex   -2.500000e+001 1.835000e+002 -8.881784e-015
      vertex   -4.000000e+001 1.835000e+002 2.000000e+000
    endloop
  endfacet
  facet normal 0.000000e+000 -1.000000e+000 0.000000e+000
    outer loop
      vertex   -4.000000e+001 1.835000e+002 2.000000e+000
      vertex   -2.500000e+001 1.835000e+002 -8.881784e-015
      vertex   -2.500000e+001 1.835000e+002 2.000000e+000
    endloop
  endfacet
  facet normal 1.000000e+000 0.000000e+000 -0.000000e+000
    outer loop
      vertex   -4.000000e+001 1.135000e+002 -8.881784e-015
      vertex   -4.000000e+001 1.155000e+002 -8.881784e-015
      vertex   -4.000000e+001 1.135000e+002 2.000000e+000
    endloop
  endfacet
  facet normal 1.000000e+000 -0.000000e+000 0.000000e+000
    outer loop
      vertex   -4.000000e+001 1.135000e+002 2.000000e+000
      vertex   -4.000000e+001 1.155000e+002 -8.881784e-015
      vertex   -4.000000e+001 1.155000e+002 2.000000e+000
    endloop
  endfacet
  facet normal 0.000000e+000 1.000000e+000 -0.000000e+000
    outer loop
      vertex   -2.500000e+001 1.135000e+002 -8.881784e-015
      vertex   -4.000000e+001 1.135000e+002 -8.881784e-015
      vertex   -2.500000e+001 1.135000e+002 2.000000e+000
    endloop
  endfacet
  facet normal 0.000000e+000 1.000000e+000 -0.000000e+000
    outer loop
      vertex   -2.500000e+001 1.135000e+002 2.000000e+000
      vertex   -4.000000e+001 1.135000e+002 -8.881784e-015
      vertex   -4.000000e+001 1.135000e+002 2.000000e+000
    endloop
  endfacet
  facet normal 0.000000e+000 -1.000000e+000 0.000000e+000
    outer loop
      vertex   -4.000000e+001 1.155000e+002 -8.881784e-015
      vertex   -2.500000e+001 1.155000e+002 -8.881784e-015
      vertex   -4.000000e+001 1.155000e+002 2.000000e+000
    endloop
  endfacet
  facet normal 0.000000e+000 -1.000000e+000 0.000000e+000
    outer loop
      vertex   -4.000000e+001 1.155000e+002 2.000000e+000
      vertex   -2.500000e+001 1.155000e+002 -8.881784e-015
      vertex   -2.500000e+001 1.155000e+002 2.000000e+000
    endloop
  endfacet
  facet normal 1.000000e+000 0.000000e+000 -0.000000e+000
    outer loop
      vertex   -4.000000e+001 4.550000e+001 -8.881784e-015
      vertex   -4.000000e+001 4.750000e+001 -8.881784e-015
      vertex   -4.000000e+001 4.550000e+001 2.000000e+000
    endloop
  endfacet
  facet normal 1.000000e+000 -0.000000e+000 0.000000e+000
    outer loop
      vertex   -4.000000e+001 4.550000e+001 2.000000e+000
      vertex   -4.000000e+001 4.750000e+001 -8.881784e-015
      vertex   -4.000000e+001 4.750000e+001 2.000000e+000
    endloop
  endfacet
  facet normal 0.000000e+000 1.000000e+000 -0.000000e+000
    outer loop
      vertex   -2.500000e+001 4.550000e+001 -8.881784e-015
      vertex   -4.000000e+001 4.550000e+001 -8.881784e-015
      vertex   -2.500000e+001 4.550000e+001 2.000000e+000
    endloop
  endfacet
  facet normal 0.000000e+000 1.000000e+000 -0.000000e+000
    outer loop
      vertex   -2.500000e+001 4.550000e+001 2.000000e+000
      vertex   -4.000000e+001 4.550000e+001 -8.881784e-015
      vertex   -4.000000e+001 4.550000e+001 2.000000e+000
    endloop
  endfacet
  facet normal 0.000000e+000 -1.000000e+000 0.000000e+000
    outer loop
      vertex   -4.000000e+001 4.750000e+001 -8.881784e-015
      vertex   -2.500000e+001 4.750000e+001 -8.881784e-015
      vertex   -4.000000e+001 4.750000e+001 2.000000e+000
    endloop
  endfacet
  facet normal 0.000000e+000 -1.000000e+000 0.000000e+000
    outer loop
      vertex   -4.000000e+001 4.750000e+001 2.000000e+000
      vertex   -2.500000e+001 4.750000e+001 -8.881784e-015
      vertex   -2.500000e+001 4.750000e+001 2.000000e+000
    endloop
  endfacet
  facet normal 1.000000e+000 0.000000e+000 -0.000000e+000
    outer loop
      vertex   -2.500000e+001 2.360000e+002 -8.881784e-015
      vertex   -2.500000e+001 2.360000e+002 2.000000e+000
      vertex   -2.500000e+001 2.345000e+002 -8.881784e-015
    endloop
  endfacet
  facet normal 1.000000e+000 0.000000e+000 -0.000000e+000
    outer loop
      vertex   -2.500000e+001 2.345000e+002 -8.881784e-015
      vertex   -2.500000e+001 2.360000e+002 2.000000e+000
      vertex   -2.500000e+001 2.345000e+002 2.000000e+000
    endloop
  endfacet
  facet normal 1.000000e+000 0.000000e+000 -0.000000e+000
    outer loop
      vertex   -2.500000e+001 1.665000e+002 -8.881784e-015
      vertex   -2.500000e+001 1.815000e+002 -8.881784e-015
      vertex   -2.500000e+001 1.665000e+002 2.000000e+000
    endloop
  endfacet
  facet normal 1.000000e+000 -0.000000e+000 0.000000e+000
    outer loop
      vertex   -2.500000e+001 1.665000e+002 2.000000e+000
      vertex   -2.500000e+001 1.815000e+002 -8.881784e-015
      vertex   -2.500000e+001 1.815000e+002 2.000000e+000
    endloop
  endfacet
  facet normal 1.000000e+000 0.000000e+000 -0.000000e+000
    outer loop
      vertex   -2.500000e+001 9.850000e+001 -8.881784e-015
      vertex   -2.500000e+001 1.135000e+002 -8.881784e-015
      vertex   -2.500000e+001 9.850000e+001 2.000000e+000
    endloop
  endfacet
  facet normal 1.000000e+000 -0.000000e+000 0.000000e+000
    outer loop
      vertex   -2.500000e+001 9.850000e+001 2.000000e+000
      vertex   -2.500000e+001 1.135000e+002 -8.881784e-015
      vertex   -2.500000e+001 1.135000e+002 2.000000e+000
    endloop
  endfacet
  facet normal 1.000000e+000 0.000000e+000 0.000000e+000
    outer loop
      vertex   -2.500000e+001 6.250000e+001 2.000000e+000
      vertex   -2.500000e+001 4.750000e+001 2.000000e+000
      vertex   -2.500000e+001 6.250000e+001 -8.881784e-015
    endloop
  endfacet
  facet normal 1.000000e+000 0.000000e+000 0.000000e+000
    outer loop
      vertex   -2.500000e+001 6.250000e+001 -8.881784e-015
      vertex   -2.500000e+001 4.750000e+001 2.000000e+000
      vertex   -2.500000e+001 4.750000e+001 -8.881784e-015
    endloop
  endfacet
  facet normal 1.000000e+000 0.000000e+000 0.000000e+000
    outer loop
      vertex   -2.500000e+001 1.305000e+002 2.000000e+000
      vertex   -2.500000e+001 1.155000e+002 2.000000e+000
      vertex   -2.500000e+001 1.305000e+002 -8.881784e-015
    endloop
  endfacet
  facet normal 1.000000e+000 0.000000e+000 0.000000e+000
    outer loop
      vertex   -2.500000e+001 1.305000e+002 -8.881784e-015
      vertex   -2.500000e+001 1.155000e+002 2.000000e+000
      vertex   -2.500000e+001 1.155000e+002 -8.881784e-015
    endloop
  endfacet
  facet normal 1.000000e+000 0.000000e+000 -0.000000e+000
    outer loop
      vertex   -2.500000e+001 2.175000e+002 -8.881784e-015
      vertex   -2.500000e+001 2.325000e+002 -8.881784e-015
      vertex   -2.500000e+001 2.175000e+002 2.000000e+000
    endloop
  endfacet
  facet normal 1.000000e+000 -0.000000e+000 0.000000e+000
    outer loop
      vertex   -2.500000e+001 2.175000e+002 2.000000e+000
      vertex   -2.500000e+001 2.325000e+002 -8.881784e-015
      vertex   -2.500000e+001 2.325000e+002 2.000000e+000
    endloop
  endfacet
  facet normal 1.000000e+000 0.000000e+000 0.000000e+000
    outer loop
      vertex   -2.500000e+001 1.985000e+002 2.000000e+000
      vertex   -2.500000e+001 1.835000e+002 2.000000e+000
      vertex   -2.500000e+001 1.985000e+002 -8.881784e-015
    endloop
  endfacet
  facet normal 1.000000e+000 0.000000e+000 0.000000e+000
    outer loop
      vertex   -2.500000e+001 1.985000e+002 -8.881784e-015
      vertex   -2.500000e+001 1.835000e+002 2.000000e+000
      vertex   -2.500000e+001 1.835000e+002 -8.881784e-015
    endloop
  endfacet
  facet normal 1.000000e+000 0.000000e+000 -0.000000e+000
    outer loop
      vertex   -2.500000e+001 2.005000e+002 -8.881784e-015
      vertex   -2.500000e+001 2.155000e+002 -8.881784e-015
      vertex   -2.500000e+001 2.005000e+002 2.000000e+000
    endloop
  endfacet
  facet normal 1.000000e+000 -0.000000e+000 0.000000e+000
    outer loop
      vertex   -2.500000e+001 2.005000e+002 2.000000e+000
      vertex   -2.500000e+001 2.155000e+002 -8.881784e-015
      vertex   -2.500000e+001 2.155000e+002 2.000000e+000
    endloop
  endfacet
  facet normal 1.000000e+000 0.000000e+000 0.000000e+000
    outer loop
      vertex   -2.500000e+001 1.475000e+002 2.000000e+000
      vertex   -2.500000e+001 1.325000e+002 2.000000e+000
      vertex   -2.500000e+001 1.475000e+002 -8.881784e-015
    endloop
  endfacet
  facet normal 1.000000e+000 0.000000e+000 0.000000e+000
    outer loop
      vertex   -2.500000e+001 1.475000e+002 -8.881784e-015
      vertex   -2.500000e+001 1.325000e+002 2.000000e+000
      vertex   -2.500000e+001 1.325000e+002 -8.881784e-015
    endloop
  endfacet
  facet normal 1.000000e+000 0.000000e+000 -0.000000e+000
    outer loop
      vertex   -2.500000e+001 1.495000e+002 -8.881784e-015
      vertex   -2.500000e+001 1.645000e+002 -8.881784e-015
      vertex   -2.500000e+001 1.495000e+002 2.000000e+000
    endloop
  endfacet
  facet normal 1.000000e+000 -0.000000e+000 0.000000e+000
    outer loop
      vertex   -2.500000e+001 1.495000e+002 2.000000e+000
      vertex   -2.500000e+001 1.645000e+002 -8.881784e-015
      vertex   -2.500000e+001 1.645000e+002 2.000000e+000
    endloop
  endfacet
  facet normal 1.000000e+000 0.000000e+000 0.000000e+000
    outer loop
      vertex   -2.500000e+001 7.950000e+001 2.000000e+000
      vertex   -2.500000e+001 6.450000e+001 2.000000e+000
      vertex   -2.500000e+001 7.950000e+001 -8.881784e-015
    endloop
  endfacet
  facet normal 1.000000e+000 0.000000e+000 0.000000e+000
    outer loop
      vertex   -2.500000e+001 7.950000e+001 -8.881784e-015
      vertex   -2.500000e+001 6.450000e+001 2.000000e+000
      vertex   -2.500000e+001 6.450000e+001 -8.881784e-015
    endloop
  endfacet
  facet normal 1.000000e+000 0.000000e+000 -0.000000e+000
    outer loop
      vertex   -2.500000e+001 8.150000e+001 -8.881784e-015
      vertex   -2.500000e+001 9.650000e+001 -8.881784e-015
      vertex   -2.500000e+001 8.150000e+001 2.000000e+000
    endloop
  endfacet
  facet normal 1.000000e+000 -0.000000e+000 0.000000e+000
    outer loop
      vertex   -2.500000e+001 8.150000e+001 2.000000e+000
      vertex   -2.500000e+001 9.650000e+001 -8.881784e-015
      vertex   -2.500000e+001 9.650000e+001 2.000000e+000
    endloop
  endfacet
endsolid
